{
   "accessors" : [
      {
         "bufferView" : 2,
         "byteOffset" : 0,
         "componentType" : 5126,
         "count" : 1768,
         "max" : [ 1, 1, 1, 1 ],
         "min" : [ 0.006584956776350737, 0.006584956776350737, 0.006584956776350737, 1 ],
         "name" : "accessor_color_m0-PolyPaper21_-376538",
         "type" : "VEC4"
      },
      {
         "bufferView" : 2,
         "byteOffset" : 28288,
         "componentType" : 5126,
         "count" : 120,
         "max" : [ 1, 1, 1, 1 ],
         "min" : [ 1, 1, 1, 1 ],
         "name" : "accessor_color_m1-PolyGlass24_-376544",
         "type" : "VEC4"
      },
      {
         "bufferView" : 0,
         "byteOffset" : 0,
         "componentType" : 5123,
         "count" : 2832,
         "max" : [ 1767 ],
         "min" : [ 0 ],
         "name" : "accessor_indices_0_m0-PolyPaper21_-376538",
         "type" : "SCALAR"
      },
      {
         "bufferView" : 0,
         "byteOffset" : 5664,
         "componentType" : 5123,
         "count" : 204,
         "max" : [ 119 ],
         "min" : [ 0 ],
         "name" : "accessor_indices_0_m1-PolyGlass24_-376544",
         "type" : "SCALAR"
      },
      {
         "bufferView" : 1,
         "byteOffset" : 21216,
         "componentType" : 5126,
         "count" : 1768,
         "max" : [ 1, 1, 1 ],
         "min" : [ -1, -1, -1 ],
         "name" : "accessor_normal_m0-PolyPaper21_-376538",
         "type" : "VEC3"
      },
      {
         "bufferView" : 1,
         "byteOffset" : 43872,
         "componentType" : 5126,
         "count" : 120,
         "max" : [ 2.108417e-06, 0.9659255, 0.9659259 ],
         "min" : [ -1, -0.9659256000000001, -0.9659259 ],
         "name" : "accessor_normal_m1-PolyGlass24_-376544",
         "type" : "VEC3"
      },
      {
         "bufferView" : 1,
         "byteOffset" : 0,
         "componentType" : 5126,
         "count" : 1768,
         "max" : [ 0.05343301, 1.864909, -0.1999156 ],
         "min" : [ -0.3000944, 1.6399, -0.4299311 ],
         "name" : "accessor_position_m0-PolyPaper21_-376538",
         "type" : "VEC3"
      },
      {
         "bufferView" : 1,
         "byteOffset" : 42432,
         "componentType" : 5126,
         "count" : 120,
         "max" : [ -0.01999436, 1.7299, -0.2399159 ],
         "min" : [ -0.02999436, 1.6699, -0.3899159 ],
         "name" : "accessor_position_m1-PolyGlass24_-376544",
         "type" : "VEC3"
      }
   ],
   "asset" : {
      "copyright" : "Unknown",
      "generator" : "glTF 1-to-2 Upgrader for Google Blocks",
      "version" : "2.0"
   },
   "bufferViews" : [
      {
         "buffer" : 0,
         "byteLength" : 6072,
         "byteOffset" : 0,
         "name" : "ushortBufferView",
         "target" : 34963
      },
      {
         "buffer" : 0,
         "byteLength" : 45312,
         "byteOffset" : 6072,
         "byteStride" : 12,
         "name" : "vec3BufferView",
         "target" : 34962
      },
      {
         "buffer" : 0,
         "byteLength" : 30208,
         "byteOffset" : 51384,
         "byteStride" : 16,
         "name" : "vec4BufferView",
         "target" : 34962
      }
   ],
   "buffers" : [
      {
         "byteLength" : 81592,
         "name" : "model",
         "uri" : "model.bin"
      }
   ],
   "materials" : [
      {
         "alphaMode" : "OPAQUE",
         "doubleSided" : false,
         "name" : "BlocksPaper",
         "pbrMetallicRoughness" : {
            "baseColorFactor" : [ 1, 1, 1, 1 ],
            "metallicFactor" : 0,
            "roughnessFactor" : 0.6
         }
      },
      {
         "alphaMode" : "BLEND",
         "doubleSided" : false,
         "name" : "BlocksGlass",
         "pbrMetallicRoughness" : {
            "baseColorFactor" : [ 0.2, 0.2, 1, 0.3 ],
            "metallicFactor" : 1,
            "roughnessFactor" : 0.4
         }
      },
      {
         "alphaMode" : "OPAQUE",
         "doubleSided" : true,
         "name" : "BlocksGem",
         "pbrMetallicRoughness" : {
            "baseColorFactor" : [ 1, 0.4, 1, 1 ],
            "metallicFactor" : 0,
            "roughnessFactor" : 0.1
         }
      }
   ],
   "meshes" : [
      {
         "name" : "mesh_m0-PolyPaper21_-376538",
         "primitives" : [
            {
               "attributes" : {
                  "COLOR_0" : 0,
                  "NORMAL" : 4,
                  "POSITION" : 6
               },
               "indices" : 2,
               "material" : 0,
               "mode" : 4
            }
         ]
      },
      {
         "name" : "mesh_m1-PolyGlass24_-376544",
         "primitives" : [
            {
               "attributes" : {
                  "COLOR_0" : 1,
                  "NORMAL" : 5,
                  "POSITION" : 7
               },
               "indices" : 3,
               "material" : 1,
               "mode" : 4
            }
         ]
      }
   ],
   "nodes" : [
      {
         "mesh" : 1,
         "name" : "node_MeshObject-1750273024-PolyGlass24"
      },
      {
         "mesh" : 0,
         "name" : "node_MeshObject1690949632-PolyPaper21"
      }
   ],
   "scene" : 0,
   "scenes" : [
      {
         "extras" : {},
         "name" : "defaultScene",
         "nodes" : [ 1, 0 ]
      }
   ]
}
