{
   "accessors" : [
      {
         "bufferView" : 2,
         "byteOffset" : 0,
         "componentType" : 5126,
         "count" : 3048,
         "max" : [ 0.3488648533821106, 0.3488648533821106, 0.3488648533821106, 1 ],
         "min" : [ 0.3488648533821106, 0.3488648533821106, 0.3488648533821106, 1 ],
         "name" : "accessor_color_m0-PolyPaper16_-83588",
         "type" : "VEC4"
      },
      {
         "bufferView" : 2,
         "byteOffset" : 48768,
         "componentType" : 5126,
         "count" : 72,
         "max" : [ 0.3488648533821106, 0.3488648533821106, 0.3488648533821106, 1 ],
         "min" : [ 0.3488648533821106, 0.3488648533821106, 0.3488648533821106, 1 ],
         "name" : "accessor_color_m1-PolyPaper16_-83594",
         "type" : "VEC4"
      },
      {
         "bufferView" : 0,
         "byteOffset" : 0,
         "componentType" : 5123,
         "count" : 4572,
         "max" : [ 3047 ],
         "min" : [ 0 ],
         "name" : "accessor_indices_0_m0-PolyPaper16_-83588",
         "type" : "SCALAR"
      },
      {
         "bufferView" : 0,
         "byteOffset" : 9144,
         "componentType" : 5123,
         "count" : 108,
         "max" : [ 71 ],
         "min" : [ 0 ],
         "name" : "accessor_indices_0_m1-PolyPaper16_-83594",
         "type" : "SCALAR"
      },
      {
         "bufferView" : 1,
         "byteOffset" : 36576,
         "componentType" : 5126,
         "count" : 3048,
         "max" : [ 1, 1, 1 ],
         "min" : [ -1, -1, -1 ],
         "name" : "accessor_normal_m0-PolyPaper16_-83588",
         "type" : "VEC3"
      },
      {
         "bufferView" : 1,
         "byteOffset" : 74016,
         "componentType" : 5126,
         "count" : 72,
         "max" : [ 0.9999999000000001, 1, 1 ],
         "min" : [ -0.9999999000000001, -1, -1 ],
         "name" : "accessor_normal_m1-PolyPaper16_-83594",
         "type" : "VEC3"
      },
      {
         "bufferView" : 1,
         "byteOffset" : 0,
         "componentType" : 5126,
         "count" : 3048,
         "max" : [ 0.5831452, 2.39005, 0.05533515 ],
         "min" : [ 0.4849125, 0.9599558, -1.204166 ],
         "name" : "accessor_position_m0-PolyPaper16_-83588",
         "type" : "VEC3"
      },
      {
         "bufferView" : 1,
         "byteOffset" : 73152,
         "componentType" : 5126,
         "count" : 72,
         "max" : [ 0.6723167, 2.383145, 0.04414999 ],
         "min" : [ 0.4850969, 1.049956, -1.200006 ],
         "name" : "accessor_position_m1-PolyPaper16_-83594",
         "type" : "VEC3"
      }
   ],
   "asset" : {
      "copyright" : "Unknown",
      "generator" : "glTF 1-to-2 Upgrader for Google Blocks",
      "version" : "2.0"
   },
   "bufferViews" : [
      {
         "buffer" : 0,
         "byteLength" : 9360,
         "byteOffset" : 0,
         "name" : "ushortBufferView",
         "target" : 34963
      },
      {
         "buffer" : 0,
         "byteLength" : 74880,
         "byteOffset" : 9360,
         "byteStride" : 12,
         "name" : "vec3BufferView",
         "target" : 34962
      },
      {
         "buffer" : 0,
         "byteLength" : 49920,
         "byteOffset" : 84240,
         "byteStride" : 16,
         "name" : "vec4BufferView",
         "target" : 34962
      }
   ],
   "buffers" : [
      {
         "byteLength" : 134160,
         "name" : "model",
         "uri" : "model.bin"
      }
   ],
   "cameras" : [
      {
         "perspective" : {
            "yfov" : 0.7853981633974483,
            "znear" : 0.1000000014901161
         },
         "type" : "perspective"
      }
   ],
   "extensions" : {
      "KHR_lights_punctual" : {
         "lights" : [
            {
               "color" : [ 1, 0.9333333333333333, 0.8666666666666667 ],
               "intensity" : 0.25,
               "name" : "headLight",
               "type" : "directional"
            },
            {
               "color" : [ 1, 0.9333333333333333, 0.8666666666666667 ],
               "intensity" : 0.324999988079071,
               "name" : "keyLight",
               "type" : "directional"
            }
         ]
      }
   },
   "extensionsUsed" : [ "GOOGLE_backgrounds", "GOOGLE_camera_settings", "KHR_lights_punctual" ],
   "extras" : {
      "GOOGLE_initial_camera_motion" : {
         "motionPath" : "FULL_ROTATION"
      },
      "GOOGLE_lighting_rig" : {
         "disableShadows" : false
      }
   },
   "materials" : [
      {
         "alphaMode" : "OPAQUE",
         "doubleSided" : false,
         "name" : "BlocksPaper",
         "pbrMetallicRoughness" : {
            "baseColorFactor" : [ 1, 1, 1, 1 ],
            "metallicFactor" : 0,
            "roughnessFactor" : 0.6
         }
      },
      {
         "alphaMode" : "BLEND",
         "doubleSided" : false,
         "name" : "BlocksGlass",
         "pbrMetallicRoughness" : {
            "baseColorFactor" : [ 0.2, 0.2, 1, 0.3 ],
            "metallicFactor" : 1,
            "roughnessFactor" : 0.4
         }
      },
      {
         "alphaMode" : "OPAQUE",
         "doubleSided" : true,
         "name" : "BlocksGem",
         "pbrMetallicRoughness" : {
            "baseColorFactor" : [ 1, 0.4, 1, 1 ],
            "metallicFactor" : 0,
            "roughnessFactor" : 0.1
         }
      }
   ],
   "meshes" : [
      {
         "name" : "mesh_m0-PolyPaper16_-83588",
         "primitives" : [
            {
               "attributes" : {
                  "COLOR_0" : 0,
                  "NORMAL" : 4,
                  "POSITION" : 6
               },
               "indices" : 2,
               "material" : 0,
               "mode" : 4
            }
         ]
      },
      {
         "name" : "mesh_m1-PolyPaper16_-83594",
         "primitives" : [
            {
               "attributes" : {
                  "COLOR_0" : 1,
                  "NORMAL" : 5,
                  "POSITION" : 7
               },
               "indices" : 3,
               "material" : 0,
               "mode" : 4
            }
         ]
      }
   ],
   "nodes" : [
      {
         "mesh" : 1,
         "name" : "node_MeshObject-1720246272-PolyPaper16"
      },
      {
         "mesh" : 0,
         "name" : "node_MeshObject2002641920-PolyPaper16"
      },
      {
         "children" : [ 3 ]
      },
      {
         "children" : [ 4 ],
         "extras" : {
            "isTransformNode" : 1
         },
         "rotation" : [ 0, 0, 0, 0 ],
         "translation" : [ 0.5545558294005907, 1.654239053241509, -0.5286692768732034 ]
      },
      {
         "children" : [ 1, 0 ],
         "translation" : [ -0.5545558294005907, -1.654239053241509, 0.5286692768732034 ]
      },
      {
         "camera" : 0,
         "children" : [ 6 ],
         "rotation" : [
            -0.2219240542792781,
            -0.2518950318538158,
            -0.05946428056213493,
            0.9400864887853888
         ],
         "translation" : [ -0.6915975876938805, 2.900388673250808, 1.629932560274987 ]
      },
      {
         "extensions" : {
            "KHR_lights_punctual" : {
               "light" : 0
            }
         },
         "extras" : {
            "isHeadLight" : 1
         },
         "name" : "headLightNode",
         "translation" : [ -1.052478404050003, 0.5262392020250013, 0.5262392020250013 ]
      },
      {
         "extensions" : {
            "KHR_lights_punctual" : {
               "light" : 1
            }
         },
         "extras" : {
            "isKeyLight" : 1
         },
         "name" : "keyLightNode",
         "rotation" : [ -0.7505326882858236, -0.3752663441429118, 0, 0.5439447166468927 ],
         "scale" : [ 0, 0, 1.063003188090503 ],
         "translation" : [ -0.5370689451748539, 3.801694419417738, -1.646667688841462 ]
      }
   ],
   "scene" : 0,
   "scenes" : [
      {
         "extensions" : {
            "GOOGLE_backgrounds" : {
               "color" : [ 0.6196078431372549, 0.6196078431372549, 0.6196078431372549 ]
            },
            "GOOGLE_camera_settings" : {
               "pivot" : [ 0.5545890613031212, 1.654202024253807, -0.5285298273414962 ]
            }
         },
         "extras" : {
            "GOOGLE_camera_index" : {
               "cameraIndex" : 0,
               "nodeIndex" : 5
            },
            "GOOGLE_geometry_data" : {
               "stats" : {
                  "centroid" : [ 0.5259342429156487, 1.675688043236732, -0.5836645007509595 ],
                  "radius" : 1.052478404050003,
                  "stdev" : 0.57711583883165
               },
               "visualCenterPoint" : [ 0.5545558294005907, 1.654239053241509, -0.5286692768732034 ]
            }
         },
         "name" : "defaultScene",
         "nodes" : [ 2, 5, 7 ]
      }
   ]
}
